PathFileType	4	(X/Y/Z)	C:/Users/opensim2020/Desktop/walking_exp_matlab/subject06_walking17_straight_01.trc																																																																																																																																					
DataRate	CameraRate	NumFrames	NumMarkers	Units	OrigDataRate	OrigDataStartFrame	OrigNumFrames																																																																																																																																	
100	100	5	45	mm	100	1247	305																																																																																																																																	
Frame#	Time	LFHD			RFHD			LBHD			RBHD			C7			T10			CLAV			STRN			RBAK			LSHO			LUPA			LELB			LFRM			LWRA			LWRB			LFIN			RSHO			RUPA			RELB			RFRM			RWRA			RWRB			RFIN			LASI			RASI			LPSI			RPSI			LTHI			LKNE			LTIB			LANK			LHEE			LTOE			RTHI			RKNE			RTIB			RANK			RHEE			RTOE			*39			*40			*41			*42			*43			*44		
		X1	Y1	Z1	X2	Y2	Z2	X3	Y3	Z3	X4	Y4	Z4	X5	Y5	Z5	X6	Y6	Z6	X7	Y7	Z7	X8	Y8	Z8	X9	Y9	Z9	X10	Y10	Z10	X11	Y11	Z11	X12	Y12	Z12	X13	Y13	Z13	X14	Y14	Z14	X15	Y15	Z15	X16	Y16	Z16	X17	Y17	Z17	X18	Y18	Z18	X19	Y19	Z19	X20	Y20	Z20	X21	Y21	Z21	X22	Y22	Z22	X23	Y23	Z23	X24	Y24	Z24	X25	Y25	Z25	X26	Y26	Z26	X27	Y27	Z27	X28	Y28	Z28	X29	Y29	Z29	X30	Y30	Z30	X31	Y31	Z31	X32	Y32	Z32	X33	Y33	Z33	X34	Y34	Z34	X35	Y35	Z35	X36	Y36	Z36	X37	Y37	Z37	X38	Y38	Z38	X39	Y39	Z39	X40	Y40	Z40	X41	Y41	Z41	X42	Y42	Z42	X43	Y43	Z43	X44	Y44	Z44	X45	Y45	Z45
																																																																																																																																								
267	2.66	659.35693	1675.79382	-1040.79077	645.9787	1654.73523	-911.38434	531.07922	1615.20667	-1060.62195	518.73645	1599.20947	-932.81421	531.62061	1456.33118	-1004.04449	494.13354	1129.29749	-994.92047	642.79681	1380.57642	-1003.87634	682.17139	1204.2218	-1014.87115	461.85773	1284.74768	-922.41162	588.74951	1412.28674	-1164.57227	604.5127	1209.8396	-1235.49353	615.03949	1097.49268	-1246.82532	675.48926	958.71552	-1263.71826	759.85693	864.70905	-1212.94116	707.55109	844.02954	-1255.7489	769.33984	778.01465	-1251.42456	600.64777	1411.69263	-842.24182	567.48431	1212.02039	-756.4834	578.30078	1090.45874	-744.78009	589.98798	970.77863	-726.4256	642.40533	828.078	-755.18048	589.07263	832.57965	-714.9668	622.72162	754.62427	-712.34583	656.03522	961.92529	-1116.2749	677.18231	971.53119	-897.828	501.57352	995.42749	-1076.22888	523.87683	1003.68219	-909.08881	569.21246	644.5603	-1164.80151	563.96887	481.0661	-1146.23901	386.08966	301.73206	-1129.72742	277.9729	169.41519	-1087.14026	244.82642	179.13815	-1034.63867	362.32898	53.46239	-1103.48999	630.72943	639.98694	-836.1051	639.32031	515.37109	-862.38519	612.60132	250.10825	-869.90057	622.0285	64.35886	-924.44519	583.12671	40.57236	-969.27466	780.52673	34.85862	-945.10596	551.45502	1704.46826	-991.04584	NaN	NaN	NaN	NaN	NaN	NaN	NaN	NaN	NaN	NaN	NaN	NaN	NaN	NaN	NaN
268	2.67	665.42017	1676.01477	-1039.59375	652.22821	1654.90259	-910.18219	537.01648	1615.6311	-1059.22803	524.93005	1599.55701	-931.40442	537.02881	1456.83728	-1002.56757	499.75052	1129.62598	-993.56573	648.44275	1380.78284	-1002.8656	687.65918	1204.37317	-1013.95251	467.67828	1285.11218	-920.90021	593.84161	1412.57996	-1163.51563	608.54419	1209.85657	-1234.09155	618.53076	1097.60632	-1245.59265	677.29095	958.15399	-1263.0896	761.07513	863.06268	-1213.51392	707.86401	842.98065	-1255.56873	769.10437	776.42969	-1252.2854	606.97076	1411.91663	-841.18329	574.72186	1212.16394	-755.26489	586.10596	1090.7085	-743.46808	598.33002	971.07678	-725.10413	651.37427	828.60376	-753.82477	598.10986	832.8833	-713.56915	632.21869	755.151	-710.75415	661.72522	962.09705	-1114.99463	682.48969	971.6004	-896.25262	507.21988	995.55994	-1075.04041	529.22821	1003.9549	-907.88025	577.84833	644.44745	-1163.8551	574.86243	481.1167	-1144.70288	396.68161	302.67307	-1128.90125	288.00528	170.69496	-1087.02588	254.77354	179.5638	-1034.28674	372.99753	55.88255	-1105.43909	633.94366	639.9776	-835.26959	641.96582	515.26062	-861.08655	613.70416	250.12682	-869.43933	622.03607	64.35162	-924.44507	583.29645	40.62414	-969.19049	780.57928	34.6819	-945.04236	557.59454	1704.8092	-989.65344	NaN	NaN	NaN	NaN	NaN	NaN	NaN	NaN	NaN	NaN	NaN	NaN	NaN	NaN	NaN
269	2.68	671.43414	1676.25916	-1038.53394	658.5799	1655.1604	-909.10083	542.94714	1616.07471	-1057.85278	531.11664	1599.95081	-930.02716	542.77747	1457.15759	-1001.23254	505.2565	1129.98132	-992.11041	654.05334	1381.0321	-1001.92273	693.09332	1204.55994	-1013.04718	473.56607	1285.46069	-919.3996	598.99835	1412.92505	-1162.48267	612.65387	1210.04822	-1232.99268	621.86633	1097.80298	-1244.36707	678.77118	957.5412	-1262.26794	762.14166	861.54327	-1214.12402	708.11505	842.12738	-1255.36572	768.71967	774.9541	-1253.16003	613.11432	1412.20947	-840.15735	581.65546	1212.40125	-754.07684	593.63519	1091.03088	-742.21802	606.41376	971.46912	-723.78082	660.75995	829.52161	-752.1604	606.87897	833.32355	-712.26447	641.53174	755.8147	-709.18628	667.42554	962.46313	-1113.745	687.80908	971.82184	-894.91565	512.71539	995.76904	-1073.86768	534.6272	1004.18903	-906.71216	586.73419	644.62927	-1162.48938	585.7381	481.27332	-1143.06213	407.53067	303.38141	-1128.24548	298.83908	171.20268	-1087.21289	265.32773	179.2879	-1034.38171	385.04874	57.80445	-1107.0918	637.27795	639.96094	-834.42273	644.56873	515.06366	-860.17273	614.69714	250.11545	-869.07941	622.0636	64.35269	-924.43439	583.10358	40.70174	-969.24225	780.70007	34.62968	-945.13184	563.82178	1705.20801	-988.28748	NaN	NaN	NaN	NaN	NaN	NaN	NaN	NaN	NaN	NaN	NaN	NaN	NaN	NaN	NaN
270	2.69	677.46783	1676.54053	-1037.4657	664.78479	1655.36865	-908.02252	548.82379	1616.61157	-1056.59094	537.20746	1600.50476	-928.72845	548.59607	1457.57385	-1000.04047	510.64377	1130.44983	-990.74884	659.60773	1381.27673	-1001.08734	698.51685	1204.80798	-1012.22351	479.30502	1285.88745	-918.02051	604.06354	1413.28979	-1161.46167	616.70947	1210.32898	-1232.01514	625.09192	1098.05579	-1243.28284	680.32507	957.20471	-1261.78479	763.05908	860.18243	-1214.70007	708.31982	841.38678	-1255.20471	768.33563	773.74243	-1254.15979	619.19879	1412.59949	-839.19849	588.54492	1212.76135	-752.94702	601.05103	1091.46301	-741.052	614.4679	971.99963	-722.60089	669.54669	830.42334	-750.8996	615.66553	833.84808	-710.90778	650.67377	756.55804	-707.81189	672.92535	962.90192	-1112.50842	693.05963	972.13544	-893.52368	518.0835	996.05011	-1072.6272	540.05804	1004.43048	-905.54144	595.34485	644.86084	-1161.27039	596.492	481.6008	-1141.58228	418.84326	303.70447	-1127.85645	310.38657	170.95958	-1087.69678	276.52106	178.32275	-1034.88867	398.08859	59.11784	-1108.37805	640.88342	640.01746	-833.6062	647.23199	514.93884	-859.16833	615.66083	250.17793	-868.65741	622.09247	64.39393	-924.41791	583.06775	40.75869	-969.16663	780.81226	34.45689	-945.12097	569.99579	1705.62817	-987.01642	NaN	NaN	NaN	NaN	NaN	NaN	NaN	NaN	NaN	NaN	NaN	NaN	NaN	NaN	NaN
271	2.7	683.42004	1676.74121	-1036.49377	670.97235	1655.58801	-907.02844	554.56769	1617.11023	-1055.35083	543.20789	1601.01978	-927.46606	554.0448	1458.01062	-998.89441	516.00861	1130.86169	-989.38318	665.03094	1381.59863	-1000.16528	703.78156	1205.0979	-1011.31708	484.84634	1286.6615	-916.42389	609.0882	1413.69116	-1160.47852	620.74506	1210.69861	-1231.18201	628.31024	1098.36389	-1242.30847	681.79858	956.94592	-1261.41467	763.8623	858.90259	-1215.28394	708.38654	840.74182	-1255.09924	767.5097	772.34705	-1254.69275	625.13013	1413.05115	-838.2641	595.21234	1213.21655	-751.85974	608.2785	1091.94897	-739.91565	622.16541	972.58197	-721.41949	677.55121	831.16577	-749.75226	623.86829	834.38959	-709.93842	659.75061	757.39484	-706.5683	678.46887	963.43933	-1111.24573	698.31476	972.37592	-892.22699	523.50836	996.38049	-1071.36353	544.94012	1004.79364	-904.23694	604.01892	645.17834	-1160.04053	607.08905	482.0816	-1140.09009	430.67505	303.62839	-1127.57141	322.78113	169.90054	-1088.37073	288.38885	176.63075	-1035.68738	412.01559	59.65665	-1109.2262	644.62671	640.0448	-832.85669	650.01111	514.82574	-858.29108	616.69025	250.24356	-868.24127	622.13635	64.43001	-924.39966	583.20892	40.90432	-969.0152	780.94434	34.27959	-945.13562	576.15961	1706.09729	-985.81409	NaN	NaN	NaN	NaN	NaN	NaN	NaN	NaN	NaN	NaN	NaN	NaN	NaN	NaN	NaN
